<?xml version="1.0" encoding="UTF-8" standalone="no"?>
<!-- Uploaded to: SVG Repo, www.svgrepo.com, Generator: SVG Repo Mixer Tools -->

<svg
   width="800px"
   height="800px"
   viewBox="0 0 48 48"
   version="1.1"
   id="svg19"
   sodipodi:docname="blog.svg"
   inkscape:version="1.2.2 (b0a8486541, 2022-12-01)"
   xml:space="preserve"
   xmlns:inkscape="http://www.inkscape.org/namespaces/inkscape"
   xmlns:sodipodi="http://sodipodi.sourceforge.net/DTD/sodipodi-0.dtd"
   xmlns:xlink="http://www.w3.org/1999/xlink"
   xmlns="http://www.w3.org/2000/svg"
   xmlns:svg="http://www.w3.org/2000/svg"><defs
     id="defs23"><linearGradient
       inkscape:collect="always"
       id="linearGradient5350"><stop
         style="stop-color:#54f974;stop-opacity:1;"
         offset="0"
         id="stop5346" /><stop
         style="stop-color:#50efff;stop-opacity:1;"
         offset="0.31428573"
         id="stop5354" /><stop
         style="stop-color:#b459d5;stop-opacity:1;"
         offset="0.91904765"
         id="stop5356" /><stop
         style="stop-color:#ac78ff;stop-opacity:1;"
         offset="1"
         id="stop5348" /></linearGradient><linearGradient
       inkscape:collect="always"
       id="linearGradient11062"><stop
         style="stop-color:#cbcbcb;stop-opacity:0.5;"
         offset="0"
         id="stop11058" /><stop
         style="stop-color:#f5f5f5;stop-opacity:0.75;"
         offset="0.8952381"
         id="stop11066" /><stop
         style="stop-color:#ffffff;stop-opacity:0.80000001;"
         offset="1"
         id="stop11060" /></linearGradient><radialGradient
       inkscape:collect="always"
       xlink:href="#linearGradient11062"
       id="radialGradient11064"
       cx="24"
       cy="24"
       fx="24"
       fy="24"
       r="20"
       gradientUnits="userSpaceOnUse"
       gradientTransform="matrix(1.1788623,-0.03205757,0.03931924,1.445897,-5.9563568,-9.932147)" /><radialGradient
       inkscape:collect="always"
       xlink:href="#linearGradient5350"
       id="radialGradient5352"
       cx="23.28"
       cy="24"
       fx="23.28"
       fy="24"
       r="18.027036"
       gradientUnits="userSpaceOnUse" /></defs><sodipodi:namedview
     id="namedview21"
     pagecolor="#ffffff"
     bordercolor="#000000"
     borderopacity="0.25"
     inkscape:showpageshadow="2"
     inkscape:pageopacity="0.0"
     inkscape:pagecheckerboard="0"
     inkscape:deskcolor="#d1d1d1"
     showgrid="false"
     inkscape:zoom="0.72986643"
     inkscape:cx="-75.356254"
     inkscape:cy="539.8248"
     inkscape:window-width="3440"
     inkscape:window-height="1360"
     inkscape:window-x="0"
     inkscape:window-y="50"
     inkscape:window-maximized="1"
     inkscape:current-layer="Layer_2" /><title
     id="title2">news</title><g
     id="Layer_2"
     data-name="Layer 2"
     style="display:inline"><g
       id="icons_Q2-7"
       data-name="icons Q2"
       style="display:inline;opacity:0.2;fill:url(#radialGradient5352);fill-opacity:1"
       transform="translate(0.16880923,0.33321948)"><path
         d="M 38.963522,5.9729637 H 7.5964785 c -0.9956058,0 -2.3435148,1.347909 -2.3435148,2.3435148 V 39.683522 c 0,0.995605 1.347909,2.343514 2.3435148,2.343514 H 38.963522 c 0.995605,0 2.343514,-1.347909 2.343514,-2.343514 V 8.3164785 c 0,-0.9956058 -1.347909,-2.3435148 -2.343514,-2.3435148 z M 12.463778,16.789185 c 0,-0.995605 0.807099,-1.802703 1.802704,-1.802703 h 5.408111 c 0.995605,0 1.802703,0.807098 1.802703,1.802703 V 24 c 0,0.995605 -0.807098,1.802704 -1.802703,1.802704 h -5.408111 c -0.995605,0 -1.802704,-0.807099 -1.802704,-1.802704 z m 19.82974,16.224333 H 14.266482 c -2.403604,0 -2.403604,-3.605407 0,-3.605407 h 18.027036 c 2.403604,0 2.403604,3.605407 0,3.605407 z m 0,-7.210814 h -5.408111 c -2.403604,0 -2.403604,-3.605408 0,-3.605408 h 5.408111 c 2.403604,0 2.403604,3.605408 0,3.605408 z m 0,-7.210815 h -5.408111 c -2.403604,0 -2.403604,-3.605407 0,-3.605407 h 5.408111 c 2.403604,0 2.403604,3.605407 0,3.605407 z"
         id="path10646"
         sodipodi:nodetypes="sssssssssssssssssssssssssssssssss"
         style="fill:url(#radialGradient5352);fill-opacity:1;stroke-width:0.901352" /></g><g
       id="g4958"
       data-name="icons Q2"
       style="display:inline"
       transform="translate(0.16880923,0.33321948)"><path
         d="M 38.963522,5.9729637 H 7.5964785 c -0.9956058,0 -2.3435148,1.347909 -2.3435148,2.3435148 V 39.683522 c 0,0.995605 1.347909,2.343514 2.3435148,2.343514 H 38.963522 c 0.995605,0 2.343514,-1.347909 2.343514,-2.343514 V 8.3164785 c 0,-0.9956058 -1.347909,-2.3435148 -2.343514,-2.3435148 z M 12.463778,16.789185 c 0,-0.995605 0.807099,-1.802703 1.802704,-1.802703 h 5.408111 c 0.995605,0 1.802703,0.807098 1.802703,1.802703 V 24 c 0,0.995605 -0.807098,1.802704 -1.802703,1.802704 h -5.408111 c -0.995605,0 -1.802704,-0.807099 -1.802704,-1.802704 z m 19.82974,16.224333 H 14.266482 c -2.403604,0 -2.403604,-3.605407 0,-3.605407 h 18.027036 c 2.403604,0 2.403604,3.605407 0,3.605407 z m 0,-7.210814 h -5.408111 c -2.403604,0 -2.403604,-3.605408 0,-3.605408 h 5.408111 c 2.403604,0 2.403604,3.605408 0,3.605408 z m 0,-7.210815 h -5.408111 c -2.403604,0 -2.403604,-3.605407 0,-3.605407 h 5.408111 c 2.403604,0 2.403604,3.605407 0,3.605407 z"
         id="path4956"
         sodipodi:nodetypes="sssssssssssssssssssssssssssssssss"
         style="display:inline;fill:url(#radialGradient11064);fill-opacity:1;stroke-width:0.901352;opacity:0.8" /></g></g></svg>
