<?xml version="1.0" encoding="UTF-8" standalone="no"?>
<!-- Uploaded to: SVG Repo, www.svgrepo.com, Generator: SVG Repo Mixer Tools -->

<svg
   version="1.1"
   id="_x32_"
   width="800px"
   height="800px"
   viewBox="0 0 512 512"
   xml:space="preserve"
   sodipodi:docname="blog.svg"
   inkscape:version="1.2.2 (b0a8486541, 2022-12-01)"
   xmlns:inkscape="http://www.inkscape.org/namespaces/inkscape"
   xmlns:sodipodi="http://sodipodi.sourceforge.net/DTD/sodipodi-0.dtd"
   xmlns:xlink="http://www.w3.org/1999/xlink"
   xmlns="http://www.w3.org/2000/svg"
   xmlns:svg="http://www.w3.org/2000/svg"><defs
   id="defs4729"><linearGradient
     inkscape:collect="always"
     id="linearGradient7994"><stop
       style="stop-color:#00802a;stop-opacity:1;"
       offset="0"
       id="stop7990" /><stop
       style="stop-color:#00997f;stop-opacity:0.50396824;"
       offset="1"
       id="stop7992" /></linearGradient><linearGradient
     id="linearGradient7230"
     inkscape:swatch="solid"><stop
       style="stop-color:#000000;stop-opacity:1;"
       offset="0"
       id="stop7228" /></linearGradient><linearGradient
     inkscape:collect="always"
     id="linearGradient5238"><stop
       style="stop-color:#004006;stop-opacity:1;"
       offset="0"
       id="stop5234" /><stop
       style="stop-color:#00ffd3;stop-opacity:0.50396824;"
       offset="1"
       id="stop5236" /></linearGradient><radialGradient
     inkscape:collect="always"
     xlink:href="#linearGradient5238"
     id="radialGradient5242"
     cx="243.63812"
     cy="204.48991"
     fx="243.63812"
     fy="204.48991"
     r="161.82433"
     gradientTransform="matrix(0.74937115,0.68842674,-4.0235292,4.3797207,946.91874,-949.78825)"
     gradientUnits="userSpaceOnUse" /><linearGradient
     inkscape:collect="always"
     xlink:href="#linearGradient7994"
     id="linearGradient7246"
     x1="43.220367"
     y1="294.31561"
     x2="424.7424"
     y2="294.31561"
     gradientUnits="userSpaceOnUse" /></defs><sodipodi:namedview
   id="namedview4727"
   pagecolor="#ffffff"
   bordercolor="#000000"
   borderopacity="0.25"
   inkscape:showpageshadow="2"
   inkscape:pageopacity="0.0"
   inkscape:pagecheckerboard="0"
   inkscape:deskcolor="#d1d1d1"
   showgrid="false"
   inkscape:zoom="1.0634933"
   inkscape:cx="350.73093"
   inkscape:cy="330.98468"
   inkscape:window-width="3440"
   inkscape:window-height="1360"
   inkscape:window-x="0"
   inkscape:window-y="50"
   inkscape:window-maximized="1"
   inkscape:current-layer="g4724" />
<style
   type="text/css"
   id="style4718">
<![CDATA[
	.st0{fill:#000000;}
]]>
</style>
<g
   id="g4724">
	<path
   class="st0"
   d="m 400.72741,226.05886 c -0.50676,10.27461 -8.30192,22.96027 -20.86396,35.15233 0,29.32402 -1.22271,152.01007 -0.1128,175.34955 H 88.197227 c 0,-58.75183 0.450697,-215.79102 0.437094,-286.12137 H 242.11848 c 11.24693,-14.76794 24.35693,-29.89184 39.20729,-43.75498 0.0684,-0.0824 0.12362,-0.16482 0.19201,-0.24636 -74.56921,0.0108 -184.999858,0.20502 -238.297414,0.11723 v 373.89133 c 128.933504,0.72754 289.522054,1.65163 381.522044,1.74662 V 210.05822 c 0,0 -0.10959,-0.13678 -0.28757,-0.27443 -6.80882,5.83651 -14.74076,11.39772 -23.72743,16.27507 z"
   id="path4720"
   sodipodi:nodetypes="cccccccccccccc"
   style="stroke-width:0.876748;fill:url(#linearGradient7246);fill-opacity:1.0" />
	<path
   class="st0"
   d="m 468.22384,31.667227 c 0,0 -13.75442,20.549213 -103.59301,50.946935 C 273.02384,113.61596 216.63756,239.73087 216.63756,239.73087 203.062,265.56775 149.40153,372.91411 149.40153,372.91411 c -14.78109,27.72715 12.30165,44.11181 28.1927,15.47986 30.45296,-54.96156 50.1114,-105.18255 96.41508,-106.60727 67.55078,-2.08227 113.74399,-61.07074 99.20927,-58.3309 -19.1245,8.3291 -61.28993,0.63038 -36.45342,-3.20539 59.61885,-4.78091 96.35984,-49.59149 84.38697,-52.63205 -21.13751,8.1371 -40.85119,0.4112 -44.71414,-1.91832 105.22464,-12.79526 91.78585,-134.032813 91.78585,-134.032813 z"
   id="path4722"
   style="stroke-width:0.876748;fill-opacity:1;fill:url(#radialGradient5242)" />
</g>
</svg>
