<?xml version="1.0" encoding="UTF-8" standalone="no"?>
<!-- Uploaded to: SVG Repo, www.svgrepo.com, Generator: SVG Repo Mixer Tools -->

<svg
   aria-label="DuckDuckGo"
   role="img"
   viewBox="-128 -128 148.18413 187.60665"
   fill="#ffffff"
   version="1.1"
   id="svg20"
   sodipodi:docname="duckduckgo.svg"
   inkscape:version="1.2.2 (b0a8486541, 2022-12-01)"
   width="148.18413"
   height="187.60664"
   xml:space="preserve"
   xmlns:inkscape="http://www.inkscape.org/namespaces/inkscape"
   xmlns:sodipodi="http://sodipodi.sourceforge.net/DTD/sodipodi-0.dtd"
   xmlns:xlink="http://www.w3.org/1999/xlink"
   xmlns="http://www.w3.org/2000/svg"
   xmlns:svg="http://www.w3.org/2000/svg"><defs
     id="defs24"><linearGradient
       inkscape:collect="always"
       id="linearGradient7729"><stop
         style="stop-color:#eaeaea;stop-opacity:1;"
         offset="0"
         id="stop7725" /><stop
         style="stop-color:#00c174;stop-opacity:1;"
         offset="0.88620383"
         id="stop7727" /></linearGradient><linearGradient
       inkscape:collect="always"
       id="linearGradient7697"><stop
         style="stop-color:#d7a528;stop-opacity:1;"
         offset="0"
         id="stop7695" /><stop
         style="stop-color:#f2d585;stop-opacity:1;"
         offset="1"
         id="stop7693" /></linearGradient><linearGradient
       inkscape:collect="always"
       id="linearGradient5808"><stop
         style="stop-color:#00b25a;stop-opacity:1;"
         offset="0.21067415"
         id="stop5806" /><stop
         style="stop-color:#00a85d;stop-opacity:1;"
         offset="0.27129403"
         id="stop5816" /><stop
         style="stop-color:#00b25a;stop-opacity:1;"
         offset="0.7724719"
         id="stop5804" /></linearGradient><linearGradient
       inkscape:collect="always"
       id="linearGradient5798"><stop
         style="stop-color:#f4cc5d;stop-opacity:1;"
         offset="0"
         id="stop5794" /><stop
         style="stop-color:#dda409;stop-opacity:1;"
         offset="1"
         id="stop5796" /></linearGradient><linearGradient
       inkscape:collect="always"
       id="linearGradient5662"><stop
         style="stop-color:#bfbfbf;stop-opacity:1;"
         offset="0"
         id="stop5660" /><stop
         style="stop-color:#f2f2f2;stop-opacity:1;"
         offset="0.45923764"
         id="stop5658" /></linearGradient><linearGradient
       inkscape:collect="always"
       xlink:href="#linearGradient7729"
       id="linearGradient5664"
       x1="-98.190041"
       y1="42.885521"
       x2="74.171799"
       y2="-14.361936"
       gradientUnits="userSpaceOnUse" /><radialGradient
       inkscape:collect="always"
       xlink:href="#linearGradient5808"
       id="radialGradient6560"
       cx="-61.837959"
       cy="34.112648"
       fx="-61.837959"
       fy="34.112648"
       r="30.227058"
       gradientTransform="matrix(1.1078693,0.08242778,-0.19876983,2.6715635,17.417726,-55.731053)"
       gradientUnits="userSpaceOnUse" /><radialGradient
       inkscape:collect="always"
       xlink:href="#linearGradient5798"
       id="radialGradient6566"
       cx="26.78483"
       cy="13.006939"
       fx="26.78483"
       fy="13.006939"
       r="39.212914"
       gradientTransform="matrix(1.5542522,-0.24502858,0.08116481,0.51484019,6.0607628,13.264217)"
       gradientUnits="userSpaceOnUse" /><linearGradient
       inkscape:collect="always"
       xlink:href="#linearGradient5662"
       id="linearGradient8901"
       gradientUnits="userSpaceOnUse"
       x1="-98.190041"
       y1="42.885521"
       x2="74.171799"
       y2="-14.361936"
       gradientTransform="matrix(1,0,0,0.99917998,4,-4.0601499)" /><radialGradient
       inkscape:collect="always"
       xlink:href="#linearGradient7697"
       id="radialGradient7699"
       cx="-61.974674"
       cy="-20.893415"
       fx="-61.974674"
       fy="-20.893415"
       r="30.662763"
       gradientTransform="matrix(2.100392,-0.01037859,0.00361629,0.7318581,61.888244,-9.8862363)"
       gradientUnits="userSpaceOnUse" /><filter
       inkscape:collect="always"
       style="color-interpolation-filters:sRGB"
       id="filter7711"
       x="-0.13477673"
       y="-0.064415"
       width="1.2695502"
       height="1.12474"><feGaussianBlur
         inkscape:collect="always"
         stdDeviation="3.8876579"
         id="feGaussianBlur7713" /></filter><filter
       inkscape:collect="always"
       style="color-interpolation-filters:sRGB"
       id="filter7747"
       x="-0.0070992482"
       y="-0.0033878896"
       width="1.0141985"
       height="1.0067349"><feGaussianBlur
         inkscape:collect="always"
         stdDeviation="0.2314556"
         id="feGaussianBlur7749" /></filter><radialGradient
       inkscape:collect="always"
       xlink:href="#linearGradient7697"
       id="radialGradient7759"
       gradientUnits="userSpaceOnUse"
       gradientTransform="matrix(2.100392,-0.01037859,0.00361629,0.7318581,61.888244,-9.8862363)"
       cx="-61.974674"
       cy="-20.893415"
       fx="-61.974674"
       fy="-20.893415"
       r="30.662763" /><filter
       inkscape:collect="always"
       style="color-interpolation-filters:sRGB"
       id="filter7761"
       x="-0.022916861"
       y="-0.036697754"
       width="1.0455636"
       height="1.0733994"><feGaussianBlur
         inkscape:collect="always"
         stdDeviation="0.5561444"
         id="feGaussianBlur7763" /></filter></defs><sodipodi:namedview
     id="namedview22"
     pagecolor="#ffffff"
     bordercolor="#000000"
     borderopacity="0.25"
     inkscape:showpageshadow="2"
     inkscape:pageopacity="0.0"
     inkscape:pagecheckerboard="0"
     inkscape:deskcolor="#d1d1d1"
     showgrid="false"
     inkscape:zoom="1.0742631"
     inkscape:cx="-568.76199"
     inkscape:cy="-28.856991"
     inkscape:window-width="3440"
     inkscape:window-height="1360"
     inkscape:window-x="0"
     inkscape:window-y="50"
     inkscape:window-maximized="1"
     inkscape:current-layer="g4800" /><g
     id="g4800"
     inkscape:groupmode="layer"
     style="display:inline;fill:url(#linearGradient5664);fill-opacity:1"
     transform="translate(-70.45271,-35.630698)"
     inkscape:label="foreground"><path
       d="m 15,78 2,-3 C 39,83 40,86 39,66 38,46 39,46 16,63 16,58 3,60 1,63"
       fill="#6b5"
       id="path14"
       style="display:none;fill:url(#linearGradient5664);fill-opacity:1"
       sodipodi:nodetypes="ccscc"
       inkscape:label="bow" /><path
       d="m 29.064729,91.099092 c 0,0 -25.4674506,-38.245335 -24.064729,-63.185483 C 6.8817886,-5.5442685 36,20.91935 36,-16.05031 36,-53.019968 5,-62.012588 5,-62.012588 c -15,-18.98442 -44,-14.9877 -44,-14.9877 l 7,3.99672 c 0,0 -7,1.99836 -9,3.996719 -2,1.998361 27.991517,4.981386 28,4.995901 -37,2.99754 -31,32.972939 -31,32.972939 l 21.453101,122.100567"
       id="path10"
       style="display:inline;fill:url(#linearGradient8901);fill-opacity:1;stroke-width:0.99959"
       sodipodi:nodetypes="csscccsccc"
       inkscape:label="body" /><path
       d="M 25,-1 63,-11 C 97,-6 34,13 30,12 0,7 9,32 45,24 81,16 54,44 21,33 -26,20 -1,-3 25,-1"
       fill="#fc0"
       id="path12"
       style="display:none;fill:url(#radialGradient6566);fill-opacity:1"
       inkscape:label="beak" /></g><g
     id="g7709"
     inkscape:groupmode="layer"
     style="display:inline;opacity:0.15;mix-blend-mode:normal;fill:#ffbf18;fill-opacity:0;stroke:#000000;stroke-width:3;stroke-dasharray:none;stroke-opacity:1;filter:url(#filter7711)"
     transform="translate(-70.45271,-35.630698)"
     inkscape:label="foreground copy"><path
       d="m 15,78 2,-3 C 39,83 40,86 39,66 38,46 39,46 16,63 16,58 3,60 1,63"
       fill="#6b5"
       id="path7703"
       style="display:none;fill:#ffbf18;fill-opacity:0;stroke:#000000;stroke-width:3;stroke-dasharray:none;stroke-opacity:1"
       sodipodi:nodetypes="ccscc"
       inkscape:label="bow" /><path
       d="m 29.064729,91.099092 c 0,0 -25.4674506,-38.245335 -24.064729,-63.185483 C 6.8817886,-5.5442685 36,20.91935 36,-16.05031 36,-53.019968 5,-62.012588 5,-62.012588 c -15,-18.98442 -44,-14.9877 -44,-14.9877 l 7,3.99672 c 0,0 -7,1.99836 -9,3.996719 -2,1.998361 27.991517,4.981386 28,4.995901 -37,2.99754 -31,32.972939 -31,32.972939 l 21.453101,122.100567"
       id="path7705"
       style="display:inline;fill:#ffbf18;fill-opacity:0;stroke:#000000;stroke-width:3;stroke-dasharray:none;stroke-opacity:1"
       sodipodi:nodetypes="csscccsccc"
       inkscape:label="body" /><path
       d="M 25,-1 63,-11 C 97,-6 34,13 30,12 0,7 9,32 45,24 81,16 54,44 21,33 -26,20 -1,-3 25,-1"
       fill="#fc0"
       id="path7707"
       style="display:none;fill:#ffbf18;fill-opacity:0;stroke:#000000;stroke-width:3;stroke-dasharray:none;stroke-opacity:1"
       inkscape:label="beak" /></g><g
     id="g7737"
     inkscape:groupmode="layer"
     style="display:inline;opacity:0.5;mix-blend-mode:normal;fill:#ffbf18;fill-opacity:0;stroke:#000000;stroke-width:0.03;stroke-dasharray:none;stroke-opacity:1;filter:url(#filter7747)"
     transform="translate(-70.45271,-35.630698)"
     inkscape:label="foreground copy copy"><path
       d="m 15,78 2,-3 C 39,83 40,86 39,66 38,46 39,46 16,63 16,58 3,60 1,63"
       fill="#6b5"
       id="path7731"
       style="display:none;fill:#ffbf18;fill-opacity:0;stroke:#000000;stroke-width:0.03;stroke-dasharray:none;stroke-opacity:1"
       sodipodi:nodetypes="ccscc"
       inkscape:label="bow" /><path
       d="m 29.064729,91.099092 c 0,0 -25.4674506,-38.245335 -24.064729,-63.185483 C 6.8817886,-5.5442685 36,20.91935 36,-16.05031 36,-53.019968 5,-62.012588 5,-62.012588 c -15,-18.98442 -44,-14.9877 -44,-14.9877 l 7,3.99672 c 0,0 -7,1.99836 -9,3.996719 -2,1.998361 27.991517,4.981386 28,4.995901 -37,2.99754 -31,32.972939 -31,32.972939 l 21.453101,122.100567"
       id="path7733"
       style="display:inline;fill:#ffbf18;fill-opacity:0;stroke:#000000;stroke-width:0.03;stroke-dasharray:none;stroke-opacity:1"
       sodipodi:nodetypes="csscccsccc"
       inkscape:label="body" /><path
       d="M 25,-1 63,-11 C 97,-6 34,13 30,12 0,7 9,32 45,24 81,16 54,44 21,33 -26,20 -1,-3 25,-1"
       fill="#fc0"
       id="path7735"
       style="display:none;fill:#ffbf18;fill-opacity:0;stroke:#000000;stroke-width:0.03;stroke-dasharray:none;stroke-opacity:1"
       inkscape:label="beak" /></g><path
     d="m -3.9954024,-26.666284 c 0,2.933409 -17.6636456,11.538078 -34.3328226,13.591464 -16.669177,2.053387 -26.992703,-0.684462 -26.992703,-0.684462 0,0 2.841337,-7.406859 2.841337,-12.907002 0,-5.500144 -2.746626,-19.311615 1.491701,-22.538365 3.835806,-2.93341 7.008633,3.104524 9.329058,4.815681 2.344103,1.711155 8.997568,6.526836 19.344769,6.893513 10.347204,0.366676 19.344773,-1.368925 22.991153,0.684463 3.646383,2.053385 5.3275076,7.040182 5.3275076,10.144708 z"
     fill="#ffbf18"
     id="path8818"
     style="display:inline;opacity:0.64966;fill:url(#radialGradient7699);fill-opacity:1;stroke-width:2.40584"
     inkscape:label="bill" /><path
     d="m -3.9954024,-26.666284 c 0,2.933409 -17.6636456,11.538078 -34.3328226,13.591464 -16.669177,2.053387 -26.992703,-0.684462 -26.992703,-0.684462 0,0 2.841337,-7.406859 2.841337,-12.907002 0,-5.500144 -2.746626,-19.311615 1.491701,-22.538365 3.835806,-2.93341 7.008633,3.104524 9.329058,4.815681 2.344103,1.711155 8.997568,6.526836 19.344769,6.893513 10.347204,0.366676 19.344773,-1.368925 22.991153,0.684463 3.646383,2.053385 5.3275076,7.040182 5.3275076,10.144708 z"
     fill="#ffbf18"
     id="path7751"
     style="display:inline;opacity:0.64966;fill:url(#radialGradient7699);fill-opacity:1;stroke-width:2.40584"
     inkscape:label="bill" /><path
     d="m -3.9954024,-26.666284 c 0,2.933409 -17.6636456,11.538078 -34.3328226,13.591464 -16.669177,2.053387 -26.992703,-0.684462 -26.992703,-0.684462 0,0 2.841337,-7.406859 2.841337,-12.907002 0,-5.500144 -2.746626,-19.311615 1.491701,-22.538365 3.835806,-2.93341 7.008633,3.104524 9.329058,4.815681 2.344103,1.711155 8.997568,6.526836 19.344769,6.893513 10.347204,0.366676 19.344773,-1.368925 22.991153,0.684463 3.646383,2.053385 5.3275076,7.040182 5.3275076,10.144708 z"
     fill="#ffbf18"
     id="path7754"
     style="display:inline;opacity:0.64966;fill:url(#radialGradient7759);fill-opacity:1;stroke-width:2.40584"
     inkscape:label="bill" /><path
     d="m -87.81201,-71.926078 c -5,-6 -18,-1 -15,7 1,-4 8,-10 15,-7 m 32,0 c 1,-6 11,-7 14,-1 -4,-2 -10,-2 -14,1 m -41,20 c 0.26919,3.759021 3.466351,6.630227 7.230969,6.495367 3.764462,-0.134855 6.743684,-3.227171 6.743684,-6.995367 0,-3.768196 -2.979222,-6.860512 -6.743684,-6.995367 -3.764618,-0.13486 -6.961779,2.736346 -7.230969,6.495367 m 46,-2 c 0.268032,3.205201 3.016012,5.628929 6.228273,5.494648 3.212133,-0.134276 5.744735,-2.778626 5.744735,-5.994648 0,-7.609347 -11.328289,-8.209715 -11.973008,-0.5"
     fill="#114488"
     id="path2402"
     style="display:inline;fill:#000000;fill-opacity:1"
     inkscape:label="eyes"
     sodipodi:nodetypes="cccccccsssccssc" /><path
     d="m -51.225206,38.866784 2,-3 c 22,8 23,11 22,-9 -1,-20 0,-20 -23,-3 0,-5 -13,-3 -15,0 -21,-9 -23,-12 -22,2 2,29 1,24 21,14"
     fill="#66bb55"
     id="path5022"
     style="display:inline;fill:url(#radialGradient6560);fill-opacity:1"
     inkscape:label="bow tie" /><g
     inkscape:groupmode="layer"
     id="layer1"
     inkscape:label="Layer 1"
     style="display:inline"
     transform="translate(-70.45271,-35.630698)" /><path
     d="m -3.9947518,-26.584197 c 0,2.935496 -17.6118032,11.519944 -34.2320582,13.549935 -16.620254,2.029991 -26.913481,-0.725199 -26.913481,-0.725199 0,0 2.832997,-7.407889 2.832997,-12.911943 0,-5.504055 -2.738564,-19.329443 1.487324,-22.552168 3.824548,-2.929777 6.988063,3.117182 9.301678,4.833016 2.337222,1.715867 8.97116,6.544894 19.287994,6.927261 10.316835,0.382366 19.287996,-1.341052 22.9236741,0.719233 3.6356813,2.060282 5.3118721,7.053132 5.3118721,10.159865 z"
     fill="#ffbf18"
     id="path7715"
     style="display:inline;opacity:0.5;fill:#eaa900;fill-opacity:0;stroke:#000000;stroke-width:0.1;stroke-dasharray:none;stroke-opacity:1;filter:url(#filter7761)"
     inkscape:label="bill" /></svg>
