<?xml version="1.0" encoding="UTF-8" standalone="no"?>
<!-- Uploaded to: SVG Repo, www.svgrepo.com, Generator: SVG Repo Mixer Tools -->

<svg
   width="800px"
   height="800px"
   viewBox="0 0 24 24"
   fill="none"
   version="1.1"
   id="svg4"
   sodipodi:docname="starred-folder.svg"
   inkscape:version="1.2.2 (b0a8486541, 2022-12-01)"
   xmlns:inkscape="http://www.inkscape.org/namespaces/inkscape"
   xmlns:sodipodi="http://sodipodi.sourceforge.net/DTD/sodipodi-0.dtd"
   xmlns:xlink="http://www.w3.org/1999/xlink"
   xmlns="http://www.w3.org/2000/svg"
   xmlns:svg="http://www.w3.org/2000/svg">
  <defs
     id="defs8">
    <linearGradient
       inkscape:collect="always"
       id="linearGradient2560">
      <stop
         style="stop-color:#4d4d4d;stop-opacity:0.25;"
         offset="0.08095238"
         id="stop2554" />
      <stop
         style="stop-color:#bfbfbf;stop-opacity:0.5;"
         offset="0.652381"
         id="stop2556" />
      <stop
         style="stop-color:#ffffff;stop-opacity:0.80000001;"
         offset="0.98571432"
         id="stop2558" />
    </linearGradient>
    <linearGradient
       inkscape:collect="always"
       id="linearGradient2480">
      <stop
         style="stop-color:#ff99de;stop-opacity:1;"
         offset="0"
         id="stop2476" />
      <stop
         style="stop-color:#b3f8ff;stop-opacity:1;"
         offset="0.44523811"
         id="stop2486" />
      <stop
         style="stop-color:#d69efc;stop-opacity:1;"
         offset="0.75"
         id="stop2478" />
    </linearGradient>
    <radialGradient
       inkscape:collect="always"
       xlink:href="#linearGradient2480"
       id="radialGradient2482"
       cx="11.999792"
       cy="11.9341"
       fx="11.999792"
       fy="11.9341"
       r="9.842496"
       gradientTransform="matrix(1,0,0,0.95847553,0,0.4955572)"
       gradientUnits="userSpaceOnUse" />
    <radialGradient
       inkscape:collect="always"
       xlink:href="#linearGradient2560"
       id="radialGradient2552"
       gradientUnits="userSpaceOnUse"
       gradientTransform="matrix(0.87854171,0.0039217,-0.00363351,0.8139815,1.4920843,2.1732929)"
       cx="11.982323"
       cy="11.732739"
       fx="11.982323"
       fy="11.732739"
       r="9.842496" />
  </defs>
  <sodipodi:namedview
     id="namedview6"
     pagecolor="#ffffff"
     bordercolor="#000000"
     borderopacity="0.25"
     inkscape:showpageshadow="2"
     inkscape:pageopacity="0.0"
     inkscape:pagecheckerboard="0"
     inkscape:deskcolor="#d1d1d1"
     showgrid="false"
     inkscape:zoom="1.28375"
     inkscape:cx="331.06134"
     inkscape:cy="399.61052"
     inkscape:window-width="3440"
     inkscape:window-height="1360"
     inkscape:window-x="0"
     inkscape:window-y="50"
     inkscape:window-maximized="1"
     inkscape:current-layer="svg4" />
  <path
     d="m 11.2691,4.41115 c 0.2315,-0.51938 0.3473,-0.77907 0.5085,-0.85904 0.14,-0.06948 0.3044,-0.06948 0.4444,0 0.1612,0.07997 0.277,0.33966 0.5085,0.85904 l 1.844,4.13693 c 0.0685,0.15354 0.1027,0.23031 0.1557,0.2891 0.0468,0.05202 0.1041,0.09363 0.168,0.12211 0.0723,0.0322 0.1559,0.04102 0.3231,0.05866 l 4.5043,0.47541 c 0.5655,0.05968 0.8482,0.08952 0.9741,0.21811 0.1093,0.11169 0.1601,0.26809 0.1373,0.42273 -0.0262,0.178 -0.2374,0.3683 -0.6598,0.749 l -3.3647,3.0322 c -0.1248,0.1125 -0.1873,0.1688 -0.2268,0.2373 -0.035,0.0607 -0.0569,0.128 -0.0642,0.1976 -0.0083,0.0787 0.0091,0.1609 0.044,0.3254 l 0.9398,4.4307 c 0.118,0.5563 0.177,0.8344 0.0936,0.9938 -0.0725,0.1386 -0.2055,0.2352 -0.3596,0.2613 -0.1774,0.03 -0.4237,-0.112 -0.9163,-0.3961 l -3.9235,-2.263 c -0.1456,-0.084 -0.2184,-0.1259 -0.2958,-0.1424 -0.0685,-0.0145 -0.1393,-0.0145 -0.2078,0 -0.0774,0.0165 -0.1502,0.0584 -0.2958,0.1424 l -3.92348,2.263 C 7.18404,20.2495 6.93775,20.3915 6.76034,20.3615 6.60623,20.3354 6.47319,20.2388 6.40075,20.1002 6.31736,19.9408 6.37635,19.6627 6.49434,19.1064 L 7.4341,14.6757 C 7.46898,14.5112 7.48642,14.429 7.47814,14.3503 7.47081,14.2807 7.44894,14.2134 7.41394,14.1527 7.37439,14.0842 7.31195,14.0279 7.18708,13.9154 L 3.82246,10.8832 C 3.40005,10.5025 3.18884,10.3122 3.16258,10.1342 3.13978,9.97956 3.19059,9.82316 3.29993,9.71147 3.42581,9.58288 3.70856,9.55304 4.27406,9.49336 L 8.77835,9.01795 C 8.94553,9.00031 9.02911,8.99149 9.10139,8.95929 9.16534,8.93081 9.2226,8.8892 9.26946,8.83718 9.32241,8.77839 9.35663,8.70162 9.42508,8.54808 Z"
     stroke="#000000"
     stroke-width="2"
     stroke-linecap="round"
     stroke-linejoin="round"
     id="path2484"
     style="display:inline;fill:url(#radialGradient2482);fill-opacity:1;stroke:#000000;stroke-opacity:0;opacity:0.4" />
  <path
     d="m 11.2691,4.41115 c 0.2315,-0.51938 0.3473,-0.77907 0.5085,-0.85904 0.14,-0.06948 0.3044,-0.06948 0.4444,0 0.1612,0.07997 0.277,0.33966 0.5085,0.85904 l 1.844,4.13693 c 0.0685,0.15354 0.1027,0.23031 0.1557,0.2891 0.0468,0.05202 0.1041,0.09363 0.168,0.12211 0.0723,0.0322 0.1559,0.04102 0.3231,0.05866 l 4.5043,0.47541 c 0.5655,0.05968 0.8482,0.08952 0.9741,0.21811 0.1093,0.11169 0.1601,0.26809 0.1373,0.42273 -0.0262,0.178 -0.2374,0.3683 -0.6598,0.749 l -3.3647,3.0322 c -0.1248,0.1125 -0.1873,0.1688 -0.2268,0.2373 -0.035,0.0607 -0.0569,0.128 -0.0642,0.1976 -0.0083,0.0787 0.0091,0.1609 0.044,0.3254 l 0.9398,4.4307 c 0.118,0.5563 0.177,0.8344 0.0936,0.9938 -0.0725,0.1386 -0.2055,0.2352 -0.3596,0.2613 -0.1774,0.03 -0.4237,-0.112 -0.9163,-0.3961 l -3.9235,-2.263 c -0.1456,-0.084 -0.2184,-0.1259 -0.2958,-0.1424 -0.0685,-0.0145 -0.1393,-0.0145 -0.2078,0 -0.0774,0.0165 -0.1502,0.0584 -0.2958,0.1424 l -3.92348,2.263 C 7.18404,20.2495 6.93775,20.3915 6.76034,20.3615 6.60623,20.3354 6.47319,20.2388 6.40075,20.1002 6.31736,19.9408 6.37635,19.6627 6.49434,19.1064 L 7.4341,14.6757 C 7.46898,14.5112 7.48642,14.429 7.47814,14.3503 7.47081,14.2807 7.44894,14.2134 7.41394,14.1527 7.37439,14.0842 7.31195,14.0279 7.18708,13.9154 L 3.82246,10.8832 C 3.40005,10.5025 3.18884,10.3122 3.16258,10.1342 3.13978,9.97956 3.19059,9.82316 3.29993,9.71147 3.42581,9.58288 3.70856,9.55304 4.27406,9.49336 L 8.77835,9.01795 C 8.94553,9.00031 9.02911,8.99149 9.10139,8.95929 9.16534,8.93081 9.2226,8.8892 9.26946,8.83718 9.32241,8.77839 9.35663,8.70162 9.42508,8.54808 Z"
     stroke="#000000"
     stroke-width="2"
     stroke-linecap="round"
     stroke-linejoin="round"
     id="path2"
     style="display:inline;opacity:1;fill:url(#radialGradient2552);fill-opacity:1;stroke:#000000;stroke-opacity:0" />
</svg>
