<?xml version="1.0" encoding="UTF-8" standalone="no"?>
<svg
   shape-rendering="geometricPrecision"
   text-rendering="geometricPrecision"
   image-rendering="optimizeQuality"
   fill-rule="evenodd"
   clip-rule="evenodd"
   viewBox="0 0 512 512"
   version="1.1"
   id="svg10"
   sodipodi:docname="tiktok.svg"
   inkscape:version="1.2.2 (b0a8486541, 2022-12-01)"
   xmlns:inkscape="http://www.inkscape.org/namespaces/inkscape"
   xmlns:sodipodi="http://sodipodi.sourceforge.net/DTD/sodipodi-0.dtd"
   xmlns="http://www.w3.org/2000/svg"
   xmlns:svg="http://www.w3.org/2000/svg">
  <defs
     id="defs14" />
  <sodipodi:namedview
     id="namedview12"
     pagecolor="#ffffff"
     bordercolor="#000000"
     borderopacity="0.25"
     inkscape:showpageshadow="2"
     inkscape:pageopacity="0.0"
     inkscape:pagecheckerboard="0"
     inkscape:deskcolor="#d1d1d1"
     showgrid="false"
     inkscape:zoom="2.0058594"
     inkscape:cx="200.41285"
     inkscape:cy="256.24927"
     inkscape:window-width="3440"
     inkscape:window-height="1360"
     inkscape:window-x="0"
     inkscape:window-y="50"
     inkscape:window-maximized="1"
     inkscape:current-layer="svg10" />
  <path
     fill="#2dccd3"
     fill-rule="nonzero"
     d="m 372.85499,129.5664 c 15.49934,15.98096 34.82901,25.72206 54.30853,30.15446 V 147.71874 C 408.86,146.42234 389.71227,140.66277 372.85499,129.5664 Z M 260.88923,50.40944 v 268.3799 c 0,35.16079 -25.26987,57.7763 -55.99694,57.7763 -10.1933,0 -19.87285,-2.38276 -28.28544,-6.78438 10.67494,13.63031 27.53088,21.47028 46.01636,21.47028 30.72841,0 55.99693,-22.61684 55.99693,-57.80708 V 65.064568 h 48.70013 A 134.15984,134.15984 0 0 1 324.06388,50.40944 Z m -39.95442,156.02079 v -13.29718 c -6.15291,-1.02482 -12.30314,-1.35795 -17.40046,-1.35795 -69.32623,0 -127.374123,55.63704 -127.374123,124.63013 0,45.2939 22.042896,84.01212 55.544723,106.93133 -23.3393,-23.15868 -37.813811,-55.5755 -37.813811,-92.27486 0,-68.87402 57.867291,-124.48029 127.043671,-124.63147 z"
     id="path4"
     style="display:inline;stroke-width:1.33788" />
  <path
     fill="#f1204a"
     fill-rule="nonzero"
     d="m 331.21083,314.3556 c 0,85.70052 -65.55741,131.11483 -127.34469,131.11483 -26.74688,0 -51.59397,-8.08213 -72.16119,-22.1352 23.09983,22.9192 54.88249,36.79033 89.89211,36.79033 61.78861,0 127.34469,-45.41431 127.34469,-131.11483 V 189.36291 c -6.15023,-4.16081 -12.06099,-9.01597 -17.73092,-14.68457 z m -154.60398,55.42432 c -7.53895,-9.52837 -12.03288,-21.86229 -12.03288,-36.33546 0,-40.61935 31.75323,-62.08963 74.09174,-57.62646 v -68.02982 c -6.15156,-1.02482 -12.30313,-1.35661 -17.42988,-1.35661 h -0.30236 v 54.70052 c -42.33585,-4.43239 -74.09041,17.00712 -74.09041,57.65725 0,23.76206 12.15329,41.794 29.76379,50.99058 z M 427.16352,159.72086 v 50.81131 c -28.13426,0 -54.76072,-5.36757 -78.22177,-21.16926 27.32082,27.32082 60.46143,35.85516 95.95402,35.85516 v -62.84286 a 110.19709,110.19709 0 0 1 -17.73225,-2.65435 z m -54.30853,-30.1558 C 357.86807,114.1567 346.43857,92.927238 341.79613,65.064568 h -14.47452 c 8.26275,30.125024 25.26987,51.143102 45.53338,64.500492 z"
     id="path6"
     style="display:inline;stroke-width:1.33788" />
  <path
     fill-rule="nonzero"
     d="m 203.86614,445.47043 c 61.78728,0 127.34469,-45.41297 127.34469,-131.11483 V 174.67834 c 5.66993,5.6686 11.57935,10.52376 17.73092,14.68457 23.46105,15.80169 50.08751,21.16926 78.22311,21.16926 V 159.72086 C 407.684,155.28846 388.35433,145.5487 372.85499,129.56506 352.59148,116.20767 335.58302,95.189592 327.32161,65.064568 H 278.62014 V 333.44446 c 0,35.19024 -25.26986,57.80708 -55.99827,57.80708 -18.48414,0 -35.34008,-7.83997 -46.01502,-21.47028 -17.6105,-9.19792 -29.76379,-27.22986 -29.76379,-50.99192 0,-40.65013 31.75322,-62.08964 74.09041,-57.65725 v -54.70186 c -69.17504,0.15118 -127.042331,55.75745 -127.042331,124.63147 0,36.69936 14.474511,69.11618 37.813811,92.27486 20.56589,14.05174 45.41431,22.13387 72.16119,22.13387 z"
     id="path8"
     style="display:inline;stroke-width:1.33788" />
</svg>
